<svg xmlns="http://www.w3.org/2000/svg" width="16pt" height="16pt" viewBox="0 0 16 16"><path fill="#ccc" fill-rule="evenodd" d="M13.688 1.996l.054.145.024.078.027.07.07.223.043.144.02.074.058.211.063.282.012.07.015.066.035.2.028.195.008.066.015.125.008.059.008.062.004.059.011.117.012.168.004.11v.05l.004.051v.328l-.004.043v.082l-.004.035-.004.075-.004.066-.008.063-.011.082-.008.046-.004.02.07.078.032.04.035.034.062.078.035.04.063.082.027.039.032.039.03.043.028.039.031.043.028.043.027.039.082.129.024.043.027.043.023.046.024.043.047.09.023.043.024.047.019.047.023.043.02.05.02.044.023.05.016.047.02.047.019.05.066.2.012.047.015.055.016.05.012.051.015.055.024.102.008.054.023.11.016.109.008.059.015.109.004.059.008.058.015.235.004.062v.383l-.004.129-.003.066v.063l-.016.25-.008.062-.004.063-.004.058-.008.063-.015.117-.004.059-.016.117-.007.054-.008.059-.012.055-.008.058-.02.11-.011.054-.012.051-.023.11-.024.101-.023.105-.016.051-.027.098-.012.05-.047.145-.015.047-.016.05-.031.09-.02.048-.015.046-.016.043-.02.047-.054.13-.059.128-.058.125-.02.04-.043.077-.02.04-.023.042-.02.036-.023.039-.047.074-.02.039-.07.105-.023.04-.023.035-.024.03-.027.036-.024.035-.023.031-.027.036-.024.03-.023.036-.028.031-.023.031-.082.094-.024.031-.027.028-.027.031-.028.027-.082.09-.082.082-.027.024-.031.027-.055.055-.031.023-.027.027-.028.024-.031.023-.027.028-.032.023-.027.024-.063.046-.027.024-.031.023-.027.02-.032.023-.09.067-.28.175-.032.016-.031.02-.094.054-.031.016-.094.05-.031.016-.067.032-.062.03-.13.056-.124.054-.066.024-.063.027-.066.023-.125.043-.067.024-.187.058-.125.036-.25.062-.059.012-.062.015-.059.012-.063.012-.117.02-.117.023-.058.008-.055.008-.059.007-.054.008-.11.012-.055.008-.05.004-.055.007-.152.012-.047.004-.051.004-.047.004h-.047l-.09.004-.085.004-.083.004h-.078l-.074.003H6.422l-.074-.003H6.27l-.082-.004-.086-.004-.09-.004h-.047l-.047-.004-.05-.004-.048-.004-.152-.012-.055-.007-.05-.004-.055-.008-.11-.012-.054-.008-.059-.008-.055-.007-.058-.008-.117-.024-.117-.02-.063-.01-.059-.013-.062-.015-.059-.012-.25-.062-.125-.036-.187-.058-.067-.024-.125-.043-.066-.023-.063-.027-.066-.024-.125-.054-.129-.055-.062-.031-.067-.032-.031-.015-.094-.051-.031-.016-.094-.054-.031-.02-.031-.015-.281-.176-.09-.067-.032-.023-.027-.02-.031-.023-.027-.024-.063-.046-.027-.024-.032-.023-.027-.028-.031-.023-.028-.024-.027-.027-.031-.023-.055-.055-.031-.027-.027-.024-.082-.082-.082-.09-.028-.027-.027-.031-.028-.028-.023-.03-.082-.095-.023-.03-.028-.032-.023-.035-.024-.031-.027-.036-.023-.03-.024-.036-.027-.035-.024-.031-.023-.036-.024-.039-.07-.105-.02-.04-.046-.073-.024-.04-.02-.035-.023-.043-.02-.039-.042-.078-.02-.039-.058-.125-.059-.129-.055-.129-.02-.047-.015-.043-.015-.046-.02-.047-.031-.09-.016-.05-.015-.048-.047-.144-.012-.051-.027-.098-.016-.05-.023-.106-.024-.102-.023-.109-.012-.05-.012-.055-.02-.11-.007-.058-.012-.055-.008-.059-.007-.054-.016-.117-.004-.06-.015-.116-.008-.063-.004-.058-.004-.063-.008-.062-.016-.25v-.063l-.003-.066-.004-.13v-.382l.004-.063.015-.234.008-.058.004-.06.015-.108.008-.059.016-.11.023-.109.008-.054.024-.102.015-.055.012-.05.016-.051.015-.055.012-.047.066-.2.02-.05.02-.047.015-.047.023-.05.02-.043.02-.051.023-.043.02-.047.023-.047.023-.043.047-.09.024-.043.023-.046.027-.043.024-.043.082-.13.027-.038.028-.043.03-.043.028-.04.031-.042.032-.04.027-.038.063-.083.035-.039.062-.078.035-.035.032-.039.07-.078-.012-.07-.004-.028-.004-.031-.004-.027-.003-.032-.004-.035-.004-.031-.004-.035v-.035l-.004-.04V5.06l-.004-.04v-.042l-.004-.043v-.278l.004-.05v-.051l.004-.051V4.45l.004-.054V4.34l.004-.055.012-.113.003-.063.008-.058.004-.059.008-.062.008-.059.008-.062.02-.13.007-.062.047-.265.027-.137.016-.067.047-.21.039-.141.039-.145.02-.07.046-.144.024-.075.05-.148.024-.074.054-.145.032-.074h.015l.024.004.027.004.035.008.047.007.051.008.094.024.07.015.04.012.038.008.086.023.047.016.094.027.05.016.055.015.164.059.059.02.062.019.063.027.062.024.067.023.133.055.07.027.07.032.074.03.149.071.156.07.082.04.078.042.168.082.258.141.09.05.094.052.09.05.093.055.188.117.097.059.098.062.05.032.048.03.05.036.102.066.05.036.052.03.05.036.043-.012.094-.023.05-.008.052-.012.05-.007.055-.012.055-.008.234-.031.125-.016.067-.008.062-.004.066-.007.07-.004.067-.008h.067l.07-.008.14-.008h.07l.071-.004.074-.004h.07l.145-.003h.145L8 3.39l.074.004h.145l.144.003h.07l.075.004.07.004h.07l.141.008.07.008h.067l.066.008.07.004.067.007.062.004.067.008.125.016.234.031.055.008.055.012.05.007.102.024.047.008.047.011.043.012.05-.035.051-.031.051-.036.102-.066.05-.035.047-.031.051-.032.098-.062.093-.059.098-.058.094-.059.094-.055.09-.05.093-.051.09-.05.258-.142.168-.082.078-.043.082-.035.078-.039.078-.035.149-.07.074-.031.07-.032.07-.027.133-.055.067-.023.062-.024.063-.027.062-.02.059-.019.164-.059.055-.015.05-.016.047-.015.094-.028.086-.023.039-.008.039-.012.07-.015.094-.024.05-.008.048-.008.035-.007.031-.004.02-.004h.015zM5.23 7.953h-.07l-.07.004h-.07l-.07.004-.134.012-.035.004-.031.003-.035.004-.067.008-.093.012-.035.008-.032.004-.093.02-.032.007-.027.004-.031.012-.063.015-.027.008-.031.008-.028.012-.031.007-.027.008-.028.012-.03.012-.056.023-.03.012-.056.023-.023.012-.027.016-.028.011-.105.063-.024.015-.027.016-.023.02-.028.015-.023.02-.024.015-.023.02-.074.062-.02.02-.027.023-.031.028-.051.05-.05.055-.048.05-.07.083-.02.027-.066.082-.059.082-.015.028-.035.058-.02.028-.05.086-.016.03-.016.028-.012.031-.015.028-.016.031-.012.027-.035.094-.015.027-.008.032-.024.062-.008.028-.011.03-.047.188-.02.094-.004.031-.007.032-.004.035-.012.093-.004.036v.03l-.008.063v.067l-.004.031v.137l.004.066v.067l.004.066.004.062.004.067.008.062.004.063.008.058.007.063.008.059.024.117.007.054.012.055.016.059.008.027.003.027.008.024.032.11.007.023.008.027.008.023.008.028.011.023.008.028.008.023.012.023.008.024.011.027.02.047.012.024.007.023.012.023.012.02.023.047.008.023.016.02.023.047.063.105.011.02.012.023.07.098.016.02.012.019.047.058.03.036.032.039.063.07.101.101.106.094.113.09.039.031.121.082.04.028.042.023.086.05.086.048.09.047.047.023.093.04.094.042.051.016.047.023.152.051.051.016.05.02.052.015.105.027.11.031.054.012.055.016.164.035.117.023.055.012.117.02.059.011.12.016.06.012.062.007.058.008.125.016.059.004.062.008.067.007.062.004.063.008.129.008.062.004.067.008.062.004.067.003.132.004.2.012h.07l.133.004.273.008h.14l.141.004h.329l.14-.004h.137l.41-.012h.066l.2-.012h.066l.066-.004.13-.007.066-.008.191-.012.063-.008.062-.004.125-.015.059-.004.125-.016.058-.008.121-.02.118-.015.058-.011.059-.008.058-.012.055-.012.059-.011.218-.047.055-.016.11-.027.156-.043.105-.035.149-.051.047-.016.05-.023.047-.016.047-.02.047-.023.094-.039.09-.047.128-.07.086-.05.04-.024.042-.028.118-.082.039-.03.074-.06.035-.03.04-.032.034-.031.067-.067.035-.03.094-.106.03-.04.032-.035.027-.039.032-.039.066-.097.012-.02.015-.023.012-.02.063-.105.023-.047.012-.02.023-.047.02-.043.011-.023.008-.023.024-.047.008-.024.011-.027.016-.047.012-.023.007-.028.012-.023.004-.028.012-.023.008-.027.007-.024.024-.082.012-.05.015-.055.012-.059.023-.11.008-.058.012-.058.008-.059.007-.063.008-.058.012-.125.004-.067.008-.128.004-.067v-.234l-.004-.035v-.032l-.004-.03v-.032l-.004-.031-.012-.098-.004-.031-.004-.035-.004-.032-.007-.03-.004-.032-.016-.063-.004-.03-.008-.032-.011-.031-.024-.094-.011-.031-.008-.028-.024-.062-.02-.059-.038-.094-.028-.058-.011-.028-.016-.03-.016-.028-.066-.117-.035-.055-.02-.031-.035-.055-.039-.055-.023-.027-.02-.027-.023-.028-.02-.027-.094-.11-.074-.078-.05-.05-.032-.028-.023-.023-.024-.02-.023-.023-.024-.02-.027-.02-.047-.034-.074-.055-.024-.016-.027-.015-.023-.016-.082-.047-.028-.011-.023-.016-.113-.047-.082-.035-.032-.012-.027-.008-.031-.007-.028-.012-.058-.016-.063-.015-.027-.012-.031-.004-.032-.008-.093-.02-.063-.007-.097-.016-.098-.012-.07-.007-.032-.004h-.035l-.035-.004-.031-.004-.07-.004h-.067l-.074-.004h-.285l-.075.004h-.074l-.148.008-.153.008-.234.011-.48.036-.168.011-.164.012-.086.004-.082.004-.172.008-.086.007-.086.004H8.46l-.086.004-.09.004h-.57l-.09-.004-.172-.004-.086-.004-.086-.007-.172-.008-.164-.008-.168-.012-.164-.011-.324-.024-.16-.012-.078-.004-.074-.003-.235-.012-.148-.008H5.52l-.075-.004zm5.34 1.254l.028.004h.027l.05.008.028.004.024.007.027.004.023.012.028.008.023.008.047.023.027.012.047.023.024.016.043.027.023.02.024.015.042.036.06.058.038.043.059.07.015.024.02.023.015.028.016.023.063.11.043.085.058.157.008.03.012.032.008.035.007.032.016.07.012.07.008.031.007.07.004.04.004.07.004.04v.148l-.004.035-.004.07-.004.04-.008.07-.011.07-.008.035-.016.066-.007.032-.008.035-.02.062-.058.157-.016.027-.012.031-.078.137-.015.023-.016.028-.02.023-.015.024-.078.093-.059.059-.043.039-.02.016-.023.02-.047.03-.02.016-.023.012-.023.015-.024.012-.027.012-.023.011-.024.008-.023.012-.028.008-.023.008-.027.004-.024.007-.027.004-.051.008-.027.004h-.11l-.023-.004-.055-.008-.023-.004-.028-.008-.027-.003-.023-.008-.051-.02-.024-.008-.023-.011-.027-.012-.02-.012-.05-.027-.02-.016-.047-.03-.024-.02-.02-.016-.019-.02-.023-.02-.059-.058-.078-.094-.035-.046-.016-.028-.015-.023-.078-.137-.012-.031-.016-.027-.058-.157-.02-.062-.008-.035-.007-.032-.016-.066-.008-.035-.012-.07-.003-.036-.008-.074-.008-.105v-.149l.008-.11.004-.038.007-.07.008-.032.012-.07.016-.07.007-.032.008-.035.012-.031.008-.031.058-.157.043-.085.063-.11.015-.023.016-.028.02-.023.015-.024.059-.07.039-.043.039-.039.023-.02.04-.035.023-.015.023-.02.043-.027.051-.027.02-.012.027-.012.023-.012.051-.02.024-.007.023-.012.027-.004.028-.007.023-.004.055-.008h.023l.028-.004zm-5.086 0l.028.004h.023l.055.008.023.004.028.007.027.004.023.012.024.008.05.02.024.011.027.012.02.012.05.027.044.027.023.02.024.015.039.036.023.02.04.038.038.043.059.07.015.024.02.023.016.028.015.023.063.11.043.085.058.157.008.03.012.032.008.035.007.032.016.07.012.07.008.031.007.07.004.04.008.11v.148l-.008.105-.008.074-.003.036-.012.07-.008.035-.016.066-.007.032-.008.035-.02.062-.058.157-.016.027-.012.031-.047.082-.011.027-.02.028-.015.023-.016.028-.035.046-.078.094-.059.059-.043.039-.02.016-.023.02-.047.03-.02.016-.05.027-.02.012-.027.012-.023.011-.024.008-.05.02-.024.008-.027.004-.028.007-.023.004-.055.008-.023.004h-.11l-.027-.004-.05-.008-.028-.004-.024-.008-.027-.003-.023-.008-.028-.008-.023-.012-.024-.008-.023-.011L5.098 12l-.024-.012-.023-.015-.024-.012-.02-.016-.046-.03-.024-.02-.019-.016-.043-.04-.059-.058-.078-.094-.015-.023-.02-.023-.016-.028-.015-.023-.078-.137-.012-.031-.016-.027-.058-.157-.02-.062-.008-.035-.007-.032-.016-.066-.008-.035-.011-.07-.008-.07-.004-.04-.004-.07-.004-.035v-.149l.004-.039.004-.07.004-.04.008-.07.007-.03.012-.071.016-.07.007-.032.008-.035.012-.031.008-.031.058-.157.043-.085.063-.11.016-.023.015-.028.02-.023.015-.024.059-.07.039-.043.059-.058.043-.036.023-.015.023-.02.043-.027.024-.016.047-.023.027-.012.047-.023.023-.008.028-.008.023-.012.027-.004.024-.007.027-.004.051-.008h.027l.028-.004zM2.75 2.699l-.023.067-.036.129-.02.066-.015.066-.015.063-.02.066-.012.063-.015.066-.016.063-.035.187-.012.059-.008.062-.011.059-.008.062-.008.055-.012.059-.004.058-.015.114-.004.054-.008.055-.004.055-.004.05-.004.055-.007.102-.004.097v.047l-.004.047v.328l.004.04v.034l.004.032v.03l.003.032v.031l.004.028.004.023.004.027v.02l.004.023v.02l.008.031.062.332-.246.274-.03.03-.032.036-.027.035-.032.032-.11.14-.077.102-.024.035-.027.039-.07.105-.047.075-.02.035-.023.039-.02.035-.02.039-.019.035-.023.04-.016.038-.039.078-.016.04-.02.039-.015.039-.035.082-.015.039-.016.043-.012.039-.031.086-.07.258-.012.046-.008.047-.012.043-.015.094-.016.098-.008.046-.004.047-.015.102-.004.05-.004.048-.004.054v.051l-.004.05-.004.056v.347l.004.063v.062l.004.117.004.063.008.117.004.055.02.226.003.055.016.11.008.05.02.16.01.051.024.149.012.05.02.098.011.047.02.094.035.14.012.043.011.047.016.043.012.043.015.043.028.086.027.082.016.043.011.039.032.078.015.043.016.04.015.034.016.04.02.038.015.036.016.039.02.035.015.035.035.07.02.035.015.036.059.101.035.067.043.062.098.156.023.028.04.062.023.027.02.028.003.004-.004-.004-.035-.094-.008-.027-.023-.063-.008-.031-.012-.031-.015-.063-.012-.035-.024-.094-.007-.035-.047-.2-.008-.065-.023-.137-.008-.07L2 10.988l-.008-.07-.004-.07-.015-.297-.004-.153v-.039l.004-.12.007-.122.016-.156.008-.04.004-.038.008-.043.046-.235.012-.039.012-.043.031-.113.016-.039.012-.039.015-.039.012-.04.015-.038.016-.035.031-.078.055-.114.016-.035.023-.035.016-.04.023-.034.02-.04.02-.034.093-.141.023-.04.024-.034.027-.032.024-.035.054-.066.055-.07.027-.032.032-.035.09-.098.124-.124.036-.032.125-.11.066-.05.035-.023.031-.024.07-.047.036-.02.035-.023.14-.078.11-.05.07-.032.04-.015.035-.016.039-.016.035-.011.074-.028.113-.031.04-.012.038-.008.114-.027.035-.008.117-.023.035-.004.04-.008.038-.004.04-.008.038-.003.075-.008.156-.016.078-.004.152-.008.157-.003h.234l.238.007.235.012.082.004.078.004.082.008.16.011.324.02.328.023.246.016.332.016h.083l.082.003h.464l.164-.003h.082l.168-.008.165-.008.164-.012.082-.004.328-.023.324-.02.16-.011.082-.008.078-.004.082-.004.157-.008.082-.004.234-.008h.234l.078.004h.079l.078.004.074.004.043.004h.039l.035.004.156.016.114.015.039.004.039.008.035.004.117.023.035.008.078.016.04.011.074.02.113.031.074.028.035.011.04.016.035.016.039.015.035.016.074.031.035.02.035.015.14.078.036.024.035.02.07.046.032.024.035.023.031.027.035.024.125.11.036.03.125.126.03.035.032.03.059.067.027.032.082.101.027.035.024.035.027.032.024.035.023.039.094.14.043.075.02.035.019.039.02.035.015.035.055.114.03.078.017.035.015.039.012.039.027.078.016.04.031.112.012.043.011.04.047.234.008.043.004.039.008.039.016.156.007.121.004.121v.118l-.008.148v.074l-.007.074-.004.075-.004.07-.024.21-.011.071-.012.067-.012.07-.011.066-.032.133-.015.063-.016.066-.02.063-.007.03-.043.126-.008.031-.012.027-.012.032-.007.027.011-.02.024-.027.039-.062.023-.028.098-.156.043-.062.035-.067.059-.101.015-.036.02-.035.035-.07.016-.035.02-.035.015-.04.015-.035.02-.039.016-.039.015-.035.016-.039.015-.043.032-.078.011-.04.016-.042.027-.082.028-.086.015-.043.012-.043.016-.043.011-.047.012-.043.035-.14.02-.094.011-.047.02-.098.012-.05.023-.149.012-.05.02-.16.007-.052.016-.109.004-.055.02-.226.003-.055.008-.117.004-.063.004-.117v-.062l.004-.063v-.347l-.004-.055-.004-.05v-.052l-.004-.054-.004-.047-.004-.051-.015-.102-.004-.046-.008-.047-.016-.098-.015-.094-.012-.043-.008-.047-.012-.046-.07-.258-.031-.086-.012-.04-.016-.042-.015-.04-.035-.081-.016-.04-.02-.038-.015-.04-.04-.078-.015-.039-.023-.039-.02-.035-.02-.039-.019-.035-.023-.04-.02-.034-.047-.075-.07-.105-.027-.04-.024-.034-.078-.102-.11-.14-.03-.032-.028-.035-.031-.035-.031-.031-.246-.274.062-.332.004-.011v-.016l.004-.016v-.02l.008-.046.004-.05.004-.028v-.032l.003-.03v-.032l.004-.035v-.113l.004-.04V4.73l-.004-.046v-.09l-.004-.047v-.05l-.015-.204-.012-.164-.008-.055-.008-.058-.003-.055-.016-.117-.02-.121-.007-.059-.024-.125-.008-.062-.015-.063-.012-.062-.027-.13-.016-.062-.047-.195-.02-.067-.015-.066-.023-.066-.02-.067-.008-.027-.023.004-.043.015-.047.012-.047.016-.102.035-.05.016-.11.039-.117.046-.187.07-.063.028-.066.031-.07.028-.07.031-.071.035-.07.031-.075.036-.078.035-.152.078-.078.043-.246.129-.086.05-.086.047-.086.051-.09.05-.09.056-.184.113-.093.058-.188.125-.05.032-.047.035-.051.031-.29.2-.323-.087-.036-.007-.039-.012-.039-.008-.043-.008-.047-.008-.043-.007-.152-.024-.11-.015-.058-.004-.117-.016-.059-.004-.062-.004-.063-.008-.062-.003-.332-.02-.133-.004h-.07l-.07-.004H8.07L8 4.031l-.07.004h-.207l-.07.004h-.071l-.133.004-.332.02-.062.003-.063.008-.062.004-.059.004-.117.016-.059.004-.11.015-.151.024-.043.007-.047.008-.043.008-.04.008-.038.012-.035.007-.325.086-.289-.199-.05-.035-.047-.031-.051-.032-.188-.125-.187-.117-.18-.11-.09-.05-.086-.05-.086-.048-.086-.05-.246-.13-.078-.042-.078-.04-.074-.038-.078-.035-.074-.036-.07-.03-.071-.036-.07-.031-.07-.028-.067-.03-.063-.028-.187-.07-.117-.047-.11-.04-.05-.015-.102-.035-.047-.016-.09-.027-.023-.004zm2.703 7.149h-.016l-.003.004H5.43l-.012.003H5.41l-.004.004h-.004l-.007.004-.012.008-.016.008-.02.012-.011.007-.059.059-.02.023-.007.012-.012.012-.008.012-.007.015-.012.016-.008.012-.008.015-.02.031-.003.016-.012.02-.008.015-.02.059-.023.058-.004.024-.007.02-.004.019-.004.023-.012.043-.012.07v.024l-.003.027v.024l-.004.023v.153l.003.023v.024l.004.027v.023l.012.07.016.067.004.023.007.02.004.02.008.023.016.039.012.035.015.035.02.036.03.062.013.016.015.023.012.012.008.015.008.012.011.008.008.012.012.007.016.02.015.016.008.004.012.007.007.004.012.012.024.012.011.004.016.007h.004l.004.004h.058l.02-.008.008-.003.011-.004.024-.012.012-.012.007-.004.012-.007.004-.004.02-.016.015-.02.04-.039.007-.015.008-.012.012-.012.007-.011.012-.016.04-.078.01-.02.009-.015.004-.02.011-.015.004-.02.016-.039.008-.023.004-.02.007-.02.008-.046.012-.043.012-.07v-.024l.004-.027v-.024l.003-.023v-.051l.004-.024-.004-.027v-.05l-.003-.024v-.024l-.004-.023v-.027l-.012-.07-.012-.044-.008-.043-.007-.02-.004-.023-.024-.058-.004-.02-.011-.02-.004-.019-.008-.015-.012-.02-.031-.062-.008-.012-.012-.016-.02-.027-.007-.012-.02-.023-.007-.012-.035-.035-.02-.016-.004-.008-.012-.007-.02-.012-.015-.008-.011-.008-.008-.004h-.004l-.012-.004-.004-.003H5.48l-.007-.004zm5.086 0h-.012l-.004.004h-.015l-.004.003h-.008l-.004.004h-.004l-.008.004-.011.008-.016.008-.02.012-.011.007-.004.008-.02.016-.035.035-.008.012-.011.011-.016.024-.02.027-.011.016-.008.012-.031.062-.012.02-.008.015-.004.02-.011.02-.004.019-.024.058-.004.024-.007.02-.008.042-.012.043-.012.07v.024l-.004.027v.024l-.003.023v.051l-.004.027.004.024v.05l.003.024v.024l.004.027v.023l.012.07.012.044.008.046.007.02.004.02.008.023.008.02.008.015.004.024.011.015.004.02.008.015.012.02.039.078.012.016.007.011.012.012.008.012.008.015.039.04.015.019.02.016.004.004.012.007.007.004.012.012.024.012.011.004.004.004h.008l.008.003h.004l.011.004h.051l.004-.004h.004l.016-.007.011-.004.024-.012.012-.012.007-.004.012-.007.008-.004.015-.016.016-.02.012-.007.008-.012.011-.008.008-.012.008-.015.012-.012.015-.023.012-.016.031-.063.02-.035.015-.035.012-.035.016-.039.008-.023.004-.02.007-.02.004-.023.016-.066.012-.07v-.024l.004-.027v-.024l.003-.023v-.176l-.004-.024-.003-.027v-.023l-.012-.07-.004-.02-.004-.024-.008-.023-.004-.02-.007-.02-.004-.023-.032-.078-.004-.02-.007-.019-.008-.015-.012-.02-.004-.016-.02-.03-.007-.016-.008-.012-.012-.016-.007-.015-.008-.012-.012-.012-.008-.012-.02-.023-.058-.059-.012-.007-.02-.012-.015-.008-.012-.008-.007-.004h-.004l-.004-.004h-.008l-.012-.003h-.004l-.004-.004zm0 0"/></svg>