<svg xmlns="http://www.w3.org/2000/svg" width="16pt" height="16pt" viewBox="0 0 16 16"><path fill="#ccc" d="M8 1.29a1.92 1.92 0 0 0-1.36.562l-5.43 5.43a1.92 1.92 0 0 0 0 2.714l3.84 3.84c.36.363.848.562 1.36.562h3.18c.512 0 .996-.199 1.36-.562l3.84-3.84a1.92 1.92 0 0 0 0-2.715l-5.43-5.43A1.916 1.916 0 0 0 8 1.29zm0 .64c.34 0 .664.133.906.375l5.43 5.43c.242.242.375.562.375.906 0 .34-.133.664-.375.906l-3.84 3.84a1.27 1.27 0 0 1-.906.375H6.41a1.27 1.27 0 0 1-.906-.375l-3.84-3.84a1.277 1.277 0 0 1-.375-.906c0-.344.133-.664.375-.907l5.43-5.43A1.28 1.28 0 0 1 8 1.93zm-.227 1.773a.639.639 0 0 0-.453.188L3.25 7.96a.641.641 0 0 0 0 .906l.3.305a.642.642 0 0 0 .454.187h.75c.168 0 .332-.07.453-.187l3.7-3.7a.649.649 0 0 0 0-.906l-.68-.675a.639.639 0 0 0-.454-.188zm0 .637l.68.68-3.7 3.699h-.75L3.7 8.414zm0 2.984a.652.652 0 0 0-.453.184L5.06 9.77a.648.648 0 0 0 0 .906l.304.304a.635.635 0 0 0 .453.188h.75a.626.626 0 0 0 .45-.188l1.89-1.886a.648.648 0 0 0 0-.906l-.68-.68a.652.652 0 0 0-.453-.184zm0 .637l.68.68-1.887 1.886h-.75l-.304-.3zM8 10.719a.652.652 0 0 0-.453.183l-.68.68a.644.644 0 0 0 0 .902l.305.305a.646.646 0 0 0 .453.191h.75c.168 0 .332-.07.453-.19l.305-.306a.64.64 0 0 0-.004-.902l-.676-.68A.635.635 0 0 0 8 10.72zm0 .636l.68.68-.305.305h-.75l-.305-.305zm0 0"/></svg>