<svg xmlns="http://www.w3.org/2000/svg" width="17" height="16" viewBox="0 0 17 16"><title>Untitled</title><g fill="#268785"><path d="M11.926 8.55l-1.188-.145a4.39 4.39 0 0 0 .032-.525 4.326 4.326 0 0 0-3.352-4.193L7.68 2.52a5.488 5.488 0 0 1 4.246 6.03z"/><path d="M7.248 14.496A7.25 7.25 0 0 1 4.427.57a7.25 7.25 0 0 1 5.643 13.357 7.203 7.203 0 0 1-2.822.57zm0-13.3a6.06 6.06 0 0 0-6.052 6.052A6.059 6.059 0 0 0 7.248 13.3 6.059 6.059 0 0 0 13.3 7.248a6.059 6.059 0 0 0-6.052-6.052z"/><path d="M11.787 12.542l.846-.846 3.458 3.458-.846.846z"/></g></svg>