<svg xmlns="http://www.w3.org/2000/svg" width="16pt" height="16pt" viewBox="0 0 16 16"><path fill="#ccc" d="M10.95 1.75a3.47 3.47 0 0 0-3.47 3.469c0 .117.028.23.04.34-2.368-.227-4.457-1.364-5.88-3.11a.325.325 0 0 0-.277-.12.33.33 0 0 0-.254.16A3.47 3.47 0 0 0 .641 4.23c0 .77.273 1.473.699 2.051-.082-.039-.172-.058-.25-.101a.318.318 0 0 0-.469.28v.04c0 1.18.61 2.203 1.508 2.828-.008 0-.02.004-.027 0a.334.334 0 0 0-.297.106.32.32 0 0 0-.067.304 3.492 3.492 0 0 0 2.403 2.274 5.986 5.986 0 0 1-3.07.847c-.243 0-.477-.011-.712-.039a.32.32 0 0 0-.21.59 9.242 9.242 0 0 0 5 1.469c2.988 0 5.331-1.246 6.902-3.027 1.57-1.786 2.39-4.098 2.39-6.262 0-.09-.007-.18-.011-.27a6.75 6.75 0 0 0 1.52-1.59.318.318 0 0 0-.398-.469c-.165.071-.36.079-.532.137.226-.3.421-.628.539-1a.322.322 0 0 0-.106-.347.325.325 0 0 0-.363-.02 5.947 5.947 0 0 1-1.79.688c-.62-.578-1.437-.969-2.35-.969zm0 .64a2.83 2.83 0 0 1 2.07.9.32.32 0 0 0 .3.089 6.54 6.54 0 0 0 1.2-.36c-.223.301-.497.56-.82.75a.32.32 0 0 0 .21.602c.32-.039.606-.168.91-.25a6.242 6.242 0 0 1-.898.8.311.311 0 0 0-.133.278 6.3 6.3 0 0 1 .012.39c0 2-.77 4.173-2.23 5.833-1.462 1.656-3.61 2.816-6.423 2.816a8.593 8.593 0 0 1-3.57-.777c1.352-.106 2.598-.582 3.602-1.371a.32.32 0 0 0-.191-.57c-1.055-.02-1.938-.633-2.41-1.5h.05c.316 0 .629-.04.922-.122a.316.316 0 0 0 .23-.316.32.32 0 0 0-.25-.3C2.391 9.05 1.54 8.121 1.34 6.968c.324.113.652.199 1.012.21a.316.316 0 0 0 .32-.222.314.314 0 0 0-.133-.367 2.835 2.835 0 0 1-1.258-2.36c0-.367.094-.699.219-1.02 1.602 1.755 3.84 2.923 6.371 3.052a.338.338 0 0 0 .262-.114c.066-.078.09-.18.066-.277a2.822 2.822 0 0 1 2.75-3.48zm0 0"/></svg>