<svg xmlns="http://www.w3.org/2000/svg" width="16pt" height="16pt" viewBox="0 0 16 16"><path fill="#ccc" d="M11.2 1.922c-.247 0-.49.023-.72.062a.325.325 0 0 0-.261.371.321.321 0 0 0 .37.262c.204-.035.407-.058.61-.058a3.515 3.515 0 0 1 3.305 4.722.317.317 0 0 0 .05.32c.075.09.192.133.305.114a.322.322 0 0 0 .246-.215c.16-.441.254-.918.254-1.422a4.163 4.163 0 0 0-4.16-4.156zm0 1.918c-.137 0-.266.015-.387.035a.322.322 0 0 0-.262.371c.031.176.199.29.37.262a1.595 1.595 0 0 1 1.781 2.117.316.316 0 0 0 .193.41.318.318 0 0 0 .41-.191 2.22 2.22 0 0 0 .136-.766A2.246 2.246 0 0 0 11.2 3.84zm-4.458.129c-1.027 0-2.558.808-3.926 2.148C1.446 7.488.641 8.93.641 10.172c0 2.406 3.082 3.848 6.129 3.848 3.949 0 6.593-2.278 6.593-4.086 0-1.106-.937-1.707-1.773-1.973-.2-.07-.336-.102-.235-.371.067-.16.165-.465.165-.871 0-.457-.32-.86-.961-.93a3.895 3.895 0 0 0-.356-.012c-.531 0-1.437.067-2.094.34 0 0-.129.055-.234.055-.094 0-.168-.047-.102-.223.235-.734.2-1.34-.168-1.676-.207-.207-.503-.304-.863-.304zm0 .64c.133 0 .313.02.41.118l.024.023c.144.129.14.52-.008.996-.129.371-.012.629.074.75.14.2.371.316.633.316.215 0 .41-.074.48-.105.512-.215 1.29-.289 1.848-.289.145 0 .242.004.285.008.262.027.39.129.39.293 0 .3-.07.523-.112.629l-.008.015c-.102.27-.102.516.004.727.148.316.445.418.605.469l.028.011c.496.157 1.332.547 1.332 1.364 0 .738-.637 1.644-1.762 2.343.445-.515.695-1.12.695-1.773 0-1.957-2.265-3.488-5.16-3.488s-5.16 1.53-5.16 3.488c0 .059 0 .117.004.176a1.988 1.988 0 0 1-.063-.508c0-1.04.703-2.32 1.985-3.598C4.648 5.214 6.008 4.61 6.742 4.61zM6.5 7.66c2.496 0 4.52 1.274 4.52 2.844 0 1.574-2.024 2.848-4.52 2.848-2.496 0-4.52-1.274-4.52-2.848 0-1.57 2.024-2.844 4.52-2.844zm-.336.668c-.965.008-1.902.535-2.312 1.352-.5 1.035-.032 2.175 1.171 2.543 1.207.398 2.645-.203 3.149-1.305.5-1.07-.137-2.211-1.34-2.508a2.607 2.607 0 0 0-.668-.082zm.5 1.352c.184 0 .336.148.336.336a.335.335 0 0 1-.336.332.335.335 0 0 1-.336-.332c0-.188.152-.336.336-.336zm-1.41.336c.105 0 .21.015.309.05.43.137.558.543.296.88-.23.34-.757.507-1.152.34-.394-.169-.492-.579-.262-.88.172-.258.492-.394.809-.39zm0 0"/></svg>